<svg width="30" height="30" viewBox="0 0 30 30" fill="none" xmlns="http://www.w3.org/2000/svg">
<path fill-rule="evenodd" clip-rule="evenodd" d="M17.1113 16.5966C15.393 18.3149 12.607 18.3149 10.8887 16.5966C9.17042 14.8782 9.17042 12.0923 10.8887 10.374C12.607 8.6557 15.393 8.6557 17.1113 10.374C18.8296 12.0923 18.8296 14.8782 17.1113 16.5966ZM17.6397 18.2561C15.2875 20.0554 11.9088 19.8793 9.75736 17.7279C7.41421 15.3848 7.41421 11.5858 9.75736 9.24264C12.1005 6.89949 15.8995 6.89949 18.2426 9.24264C20.3939 11.3939 20.5701 14.7724 18.7711 17.1247L23.0511 21.4047L21.9197 22.5361L17.6397 18.2561Z" fill="white"/>
</svg>
